<svg fill="#ffffff" width="242" height="63" xmlns="http://www.w3.org/2000/svg" viewBox="0 0 120.976 31.324" overflow="visible" id="svg1470285565_4871"><path d="M 12.122 31.246 C 9.894 31.246 7.736 30.979 5.649 30.445 C 3.575 29.911 1.692 29.129 0 28.1 L 0 22.882 C 1.551 23.977 3.343 24.823 5.373 25.423 C 7.419 26.022 9.471 26.322 11.53 26.322 C 13.081 26.322 14.252 26.107 15.042 25.677 C 15.831 25.247 16.226 24.654 16.226 23.899 C 16.226 23.351 16.022 22.876 15.613 22.472 C 15.218 22.055 14.442 21.71 13.286 21.436 L 7.764 20.225 C 5.056 19.613 3.103 18.759 1.904 17.665 C 0.719 16.571 0.127 15.203 0.127 13.561 C 0.127 12.154 0.599 10.917 1.544 9.849 C 2.503 8.78 3.871 7.953 5.649 7.367 C 7.44 6.768 9.534 6.468 11.932 6.468 C 14.104 6.468 16.078 6.703 17.855 7.172 C 19.632 7.627 21.163 8.24 22.446 9.008 L 22.446 14.05 C 21.148 13.229 19.66 12.578 17.982 12.096 C 16.304 11.601 14.52 11.353 12.63 11.353 C 10.951 11.353 9.696 11.549 8.864 11.939 C 8.032 12.317 7.616 12.851 7.616 13.542 C 7.616 14.115 7.898 14.571 8.462 14.91 C 9.04 15.248 9.992 15.555 11.318 15.828 L 16.269 16.825 C 18.751 17.294 20.634 18.069 21.917 19.15 C 23.2 20.231 23.842 21.749 23.842 23.703 C 23.842 25.201 23.377 26.523 22.446 27.67 C 21.529 28.803 20.189 29.683 18.426 30.308 C 16.663 30.933 14.562 31.246 12.122 31.246 Z M 30.096 6.409 C 29.278 6.409 28.544 6.273 27.896 5.999 C 27.247 5.712 26.739 5.322 26.372 4.827 C 26.006 4.332 25.822 3.778 25.822 3.166 C 25.822 2.566 26.006 2.026 26.372 1.544 C 26.753 1.062 27.268 0.684 27.917 0.41 C 28.566 0.137 29.292 0 30.096 0 C 30.886 0 31.598 0.137 32.232 0.41 C 32.867 0.684 33.361 1.062 33.713 1.544 C 34.08 2.026 34.263 2.566 34.263 3.166 C 34.263 3.778 34.08 4.332 33.713 4.827 C 33.361 5.322 32.867 5.712 32.232 5.999 C 31.598 6.273 30.886 6.409 30.096 6.409 Z M 26.372 8.227 L 33.735 8.227 L 33.735 30.542 L 26.372 30.542 Z M 63.661 20.049 L 43.69 20.049 C 44.099 21.86 45.143 23.267 46.821 24.27 C 48.5 25.26 50.707 25.755 53.443 25.755 C 55.248 25.755 56.934 25.507 58.499 25.012 C 60.079 24.517 61.517 23.84 62.815 22.98 L 62.815 28.256 C 61.475 29.168 59.825 29.898 57.864 30.445 C 55.918 30.979 53.887 31.246 51.772 31.246 C 48.683 31.246 45.975 30.718 43.648 29.663 C 41.321 28.608 39.523 27.129 38.253 25.227 C 36.998 23.325 36.37 21.143 36.37 18.681 C 36.37 16.388 36.942 14.317 38.084 12.467 C 39.241 10.617 40.898 9.158 43.056 8.09 C 45.228 7.009 47.773 6.468 50.693 6.468 C 53.471 6.468 55.826 6.917 57.759 7.816 C 59.705 8.702 61.172 9.979 62.159 11.646 C 63.16 13.301 63.661 15.281 63.661 17.587 Z M 50.862 11.744 C 48.93 11.744 47.357 12.174 46.144 13.034 C 44.931 13.881 44.156 15.02 43.817 16.453 L 57.441 16.453 C 57.286 14.942 56.637 13.783 55.495 12.975 C 54.367 12.154 52.822 11.744 50.862 11.744 Z M 83.433 6.468 C 85.619 6.468 87.474 6.898 88.997 7.758 C 90.52 8.605 91.677 9.855 92.466 11.51 C 93.27 13.151 93.672 15.151 93.672 17.509 L 93.672 30.542 L 86.31 30.542 L 86.31 19.013 C 86.31 16.734 85.817 15.033 84.829 13.913 C 83.842 12.78 82.347 12.213 80.344 12.213 C 78.92 12.213 77.707 12.487 76.706 13.034 C 75.718 13.581 74.971 14.356 74.463 15.359 C 73.969 16.362 73.723 17.528 73.723 18.857 L 73.723 30.542 L 66.382 30.542 L 66.382 7.426 L 73.68 7.426 L 73.68 12.682 C 74.569 10.585 75.817 9.028 77.425 8.012 C 79.033 6.983 81.035 6.468 83.433 6.468 Z M 107.69 6.468 C 110.469 6.468 112.852 6.911 114.841 7.797 C 116.83 8.683 118.346 9.985 119.389 11.705 C 120.447 13.425 120.976 15.515 120.976 17.978 L 120.976 30.542 L 113.783 30.542 L 113.783 27.416 C 112.923 28.706 111.752 29.683 110.271 30.347 C 108.805 30.998 107.091 31.324 105.131 31.324 C 103.297 31.324 101.689 30.992 100.307 30.327 C 98.924 29.663 97.853 28.758 97.091 27.611 C 96.343 26.452 95.97 25.156 95.97 23.723 C 95.97 22.277 96.358 20.987 97.133 19.854 C 97.923 18.707 99.037 17.815 100.476 17.176 C 101.929 16.525 103.607 16.199 105.511 16.199 C 109.192 16.199 111.943 17.307 113.762 19.521 L 113.762 18.583 C 113.734 17.15 113.367 15.945 112.662 14.968 C 111.957 13.991 110.991 13.262 109.764 12.78 C 108.551 12.285 107.147 12.037 105.554 12.037 C 102.324 12.037 99.559 13.06 97.26 15.105 L 97.26 9.477 C 100.222 7.471 103.699 6.468 107.69 6.468 Z M 108.05 26.986 C 109.15 26.986 110.13 26.83 110.991 26.517 C 111.865 26.204 112.549 25.768 113.043 25.208 C 113.536 24.648 113.783 24.022 113.783 23.332 C 113.783 22.667 113.55 22.075 113.085 21.554 C 112.62 21.019 111.957 20.603 111.096 20.303 C 110.25 20.003 109.27 19.854 108.156 19.854 C 107.07 19.854 106.132 20.003 105.342 20.303 C 104.552 20.603 103.946 21.019 103.523 21.554 C 103.114 22.088 102.909 22.7 102.909 23.39 C 102.909 24.094 103.114 24.719 103.523 25.266 C 103.932 25.814 104.524 26.237 105.3 26.537 C 106.075 26.836 106.992 26.986 108.05 26.986 Z" fill="#ffffff"/></svg>